<svg width="1464" height="1408" viewBox="0 0 1464 1408" fill="none" xmlns="http://www.w3.org/2000/svg">
<path d="M0 0H442.729C637.133 0 794.729 157.596 794.729 352V352C794.729 546.404 637.133 704 442.729 704H354.729C158.818 704 0 545.183 0 349.271V0Z" fill="#528ED3"/>
<path d="M794.729 352C794.729 157.596 952.324 0 1146.73 0H1463.94V369.395C1463.94 554.192 1314.13 704 1129.33 704V704C944.536 704 794.729 554.192 794.729 369.395V352Z" fill="#528ED3"/>
<path d="M1463.94 1408L1021.21 1408C826.805 1408 669.209 1250.4 669.209 1056C669.209 861.596 826.805 704 1021.21 704L1109.21 704C1305.12 704 1463.94 862.817 1463.94 1058.73L1463.94 1408Z" fill="#528ED3"/>
<path d="M669.209 1056C669.209 1250.4 511.613 1408 317.209 1408L-0.000286222 1408L-0.000253928 1038.6C-0.000237772 853.808 149.807 704 334.604 704V704C519.401 704 669.209 853.808 669.209 1038.6L669.209 1056Z" fill="#528ED3"/>
</svg>
